<?xml version="1.0" encoding="UTF-8" standalone="no"?>
<!-- Created with Inkscape (http://www.inkscape.org/) -->

<svg
   xmlns:dc="http://purl.org/dc/elements/1.1/"
   xmlns:cc="http://creativecommons.org/ns#"
   xmlns:rdf="http://www.w3.org/1999/02/22-rdf-syntax-ns#"
   xmlns:svg="http://www.w3.org/2000/svg"
   xmlns="http://www.w3.org/2000/svg"
   xmlns:sodipodi="http://sodipodi.sourceforge.net/DTD/sodipodi-0.dtd"
   xmlns:inkscape="http://www.inkscape.org/namespaces/inkscape"
   width="400"
   height="400"
   id="svg2"
   version="1.1"
   inkscape:version="0.48.3.1 r9886"
   sodipodi:docname="New document 8">
  <defs
     id="defs4">
    <linearGradient
       id="linearGradient3815">
      <stop
         style="stop-color:#286a28;stop-opacity:1;"
         offset="0"
         id="stop3817" />
      <stop
         style="stop-color:#1c3b1c;stop-opacity:1;"
         offset="1"
         id="stop3819" />
    </linearGradient>
  </defs>
  <sodipodi:namedview
     id="base"
     pagecolor="#ffffff"
     bordercolor="#666666"
     borderopacity="1.0"
     inkscape:pageopacity="0.0"
     inkscape:pageshadow="2"
     inkscape:zoom="0.98994949"
     inkscape:cx="39.424628"
     inkscape:cy="211.50597"
     inkscape:document-units="px"
     inkscape:current-layer="layer8"
     showgrid="false"
     inkscape:window-width="1354"
     inkscape:window-height="708"
     inkscape:window-x="167"
     inkscape:window-y="83"
     inkscape:window-maximized="0" />
  <metadata
     id="metadata7">
    <rdf:RDF>
      <cc:Work
         rdf:about="">
        <dc:format>image/svg+xml</dc:format>
        <dc:type
           rdf:resource="http://purl.org/dc/dcmitype/StillImage" />
        <dc:title></dc:title>
      </cc:Work>
    </rdf:RDF>
  </metadata>
  <g
     inkscape:groupmode="layer"
     id="layer5"
     inkscape:label="Body">
    <g
       inkscape:groupmode="layer"
       id="layer6"
       inkscape:label="Main"
       style="display:inline">
      <path
         style="fill:#305b65;fill-opacity:1;stroke:none"
         d="m 148.57142,175.71429 -20,26.42857 -42.142848,-52.85714 -67.142857,-18.57143 -13.5714294,35 31.4285724,-11.42857 10,17.14285 L 7.1428566,212.85715 46.428572,210 l -12.142857,35.71429 20.714286,2.85714 3.571428,20.71429 55.714281,-2.85714 -25.714281,35 32.857141,6.42857 -28.571426,45.71428 c -8.901853,19.88326 -2.193337,39.03315 17.142846,34.28572 l 177.14287,-10e-6 C 319.75391,387.95891 313.57331,371.22365 308.57142,355 l -27.14285,-42.85714 22.85714,7.14286 -5.71429,-31.42857 42.85715,-9.28572 -30.71429,-21.42857 65,-32.14286 L 330,206.42857 l 7.85714,-22.14285 20.71428,16.42857 -23.57142,-35 45.71428,-32.85714 -7.14286,-25.71429 -70,20.71429 -42.14285,70.71428 -44.28572,-22.85714 z"
         id="path4546"
         inkscape:connector-curvature="0"
         sodipodi:nodetypes="ccccccccccccccccccccccccccccccccccc" />
      <path
         style="fill:#0086af;fill-opacity:1;stroke:none"
         d="m 143.57143,258.92857 c 0,0 -14.28572,26.42857 -7.14286,31.78572 7.14286,5.35714 22.14286,13.21428 34.64286,9.28571 12.5,-3.92857 13.92857,-2.85714 15.71429,-5.71429 C 188.57143,291.42857 165,288.92857 165,288.92857 l -1.07143,-2.14286 15,-5.71428 4.28572,-6.42857 -17.14286,0.71428 0,-2.14285 16.07143,-6.42858 0.35714,-3.57142 -3.21428,-2.14286 -21.07143,3.57142 c 10.95003,-17.11388 3.06343,-26.44583 4.64285,-35.89285 l -5,13.75 z"
         id="path4651"
         inkscape:connector-curvature="0"
         sodipodi:nodetypes="csssccccccccccccc" />
      <path
         style="fill:#0086af;fill-opacity:1;stroke:none"
         d="m 213.57143,229.28571 -5,26.42858 -13.21429,-2.5 -10.71428,-0.71429 -6.42857,2.14286 2.14285,5.71428 c 0,0 17.85715,-1.07143 24.28572,1.78572 6.42857,2.85714 1.07143,0.71428 1.07143,0.71428 0,0 -16.07143,0.71429 -20.71429,5.35715 -4.64286,4.64285 11.07143,5 11.07143,5 0,0 6.07143,1.78571 5.35714,3.57142 -0.71428,1.78572 -0.71428,1.78572 -0.71428,1.78572 0,0 -1.42857,2.85714 -9.64286,1.07143 -8.21429,-1.78572 -12.14286,4.28571 -12.14286,4.28571 0,0 0,4.28572 8.92857,5 8.92858,0.71429 18.21429,2.5 18.21429,2.5 l -10,4.28572 c 0,0 -10.35714,1.42857 -10.35714,4.28571 0,2.85714 12.85714,3.21429 12.85714,3.21429 0,0 32.14286,-4.64286 36.42857,-10 4.28572,-5.35715 11.07143,-15 8.92857,-23.57143 -2.14285,-8.57143 -7.5,-16.42857 -7.5,-16.42857 L 222.5,230.35714 213.57143,217.5 z"
         id="path4671"
         inkscape:connector-curvature="0"
         sodipodi:nodetypes="ccccccscscscscsccscsscccc" />
    </g>
    <g
       inkscape:groupmode="layer"
       id="layer8"
       inkscape:label="Shade"
       style="display:inline">
      <path
         style="fill:#000000;fill-opacity:0.18721463;stroke:none"
         d="M 122.14286,306.42857 C 159.92865,190.31254 148.67264,177.9204 148.57143,177.85714 L 127.14286,200.71428 87.857143,147.85714 20,132.14286 l -10,30 L 36.428572,155 45,174.28571 l -34.285714,36.42857 35,-3.57142 -8.571429,38.57143 15,2.85714 6.428572,17.85714 55.714281,0.71429 -24.999995,34.28571 z"
         id="path4588"
         inkscape:connector-curvature="0"
         sodipodi:nodetypes="cccccccccccccccc" />
      <path
         style="fill:#000000;fill-opacity:0.18721463;stroke:none"
         d="M 281.42857,312.85714 C 259.78041,275 249.55051,237.14285 245,199.28571 l 12.14286,2.14286 L 315,123.57143 372.14286,110 377.85714,135 335,163.57143 354.28572,195.71428 337.14286,184.28571 330,203.57143 375,225 l -62.85714,32.85714 27.14286,18.57143 -40.71429,12.14286 4.28571,27.85714 z"
         id="path4590"
         inkscape:connector-curvature="0"
         sodipodi:nodetypes="cccccccccccccccc" />
      <path
         style="fill:#000000;fill-opacity:0.18721463;stroke:none"
         d="m 96.811843,350.60405 c -3.264044,15.17319 -2.360539,26.92644 54.108787,20.93837 l 13.68873,-38.87346 -4.41352,35.24074 c 19.76548,4.48493 40.91542,8.07985 79.21031,0.65302 l -11.4951,-38.96011 18.75,41.10297 c 26.54659,5.09059 58.18781,2.88383 52.56818,-22.24439 l 15.93837,32.34591 -85.86297,7.07107 -138.390901,-2.02031 c -10.88999,-23.89307 0.978053,-26.29245 5.898114,-35.25381 z"
         id="path4594"
         inkscape:connector-curvature="0"
         sodipodi:nodetypes="cccccccccccc" />
      <path
         style="fill:#000000;fill-opacity:0.31050229;stroke:none"
         d="m 142.14286,182.14286 c 0,0 -2.14286,31.42857 -11.42857,36.42857 -9.28572,5 1.42857,11.42857 9.28571,5 7.85714,-6.42857 15.71429,-30 15.71429,-30 0,0 10.71428,35.71428 2.14285,47.14286 -8.57143,11.42857 -17.14285,23.57142 -10,25 7.14286,1.42857 15.71429,-2.85715 18.57143,-7.85715 2.85714,-5 5.71429,-34.28571 1.42857,-45 C 163.57143,202.14286 175,203.57143 175,203.57143 c 0,0 1.42857,46.42857 7.85714,44.28571 6.42858,-2.14285 10,-6.42857 8.57143,-17.14285 C 190,220 190,204.28571 194.28572,205 c 4.28571,0.71428 22.14285,10.71428 18.57142,24.28571 -3.57142,13.57143 -17.14285,32.85715 -8.57142,33.57143 8.57142,0.71429 17.14285,0.71429 20.71428,-7.85714 3.57143,-8.57143 -4.28571,-35.71429 -4.28571,-35.71429 0,0 -17.85715,-26.42857 3.57143,-27.85714 21.42857,-1.42857 8.57142,11.42857 16.42857,15.71429 7.85714,4.28571 10,9.28571 10,9.28571 0,0 10.71428,19.28572 0,14.28572 C 240,225.71429 230,235 237.85714,237.14286 c 7.85715,2.14285 15,5 15,5 0,0 15.00001,-6.42857 11.42858,-17.14286 -1.78572,-5.35715 -6.33928,-8.30357 -10.35714,-11.25 -4.01786,-2.94643 -7.5,-5.89286 -7.14286,-11.25 0.17857,-2.67857 20.3263,11.85293 36.12723,8.09151 23.58259,-5.61384 17.40374,-23.03347 13.78348,-23.1808 -7.65794,-0.31164 -2.16518,16.31696 -30.9933,18.11384 -16.35973,1.01971 -23.91741,-25.16741 -23.91741,-25.16741 z"
         id="path4596"
         inkscape:connector-curvature="0"
         sodipodi:nodetypes="csscsssscsssssscsscsscsssssscc" />
      <path
         style="fill:#000000;fill-opacity:0.18823529;stroke:none"
         d="m 136.07143,284.64286 c -3.03572,9.28571 -6.06265,11.73371 4.64286,15.53571 6.58071,2.3371 25,7.85714 37.67857,2.32143 0,0 1.07142,5.17857 7.85714,5.17857 6.78571,0 9.46428,0.17858 18.21428,-1.07143 7.42042,-1.06007 40.00001,-6.07143 40.35715,-17.5 0.35715,-11.42857 -5.35715,-25.89285 -5.35715,-25.89285 0,0 1.07144,11.42857 -3.57142,19.82143 -4.64285,8.39286 -29.79346,15.45785 -40.89286,16.42857 -2.40064,0.20995 -4.28571,-2.5 -4.28571,-2.5 0,0 11.96428,-2.85715 14.46428,-5 2.5,-2.14286 -18.03571,-1.07143 -18.03571,-1.07143 3.52283,-3.22683 10.24323,-0.27201 22.23214,-0.53572 l 0.98215,-3.21428 c -29.72761,-4.58652 -29.82143,-0.17858 -45.53572,-0.35715 l 15.3125,-7.36607 -18.97321,5.49107 4.91071,4.91072 16.07143,0.35714 2.14285,1.07143 c -1.96098,2.72266 -4.46937,4.71543 -7.85714,5.53572 -7.76946,0.37729 -17.15239,0.83644 -24.28571,-2.67857 -5.98214,-4.28572 -12.85124,-8.15036 -13.10268,-18.61608 -0.0534,-2.22311 -2.96875,9.15179 -2.96875,9.15179 z"
         id="path4673"
         inkscape:connector-curvature="0"
         sodipodi:nodetypes="cscssscsscscccccccccccsc" />
      <path
         style="fill:#000000;fill-opacity:0.18823529;stroke:none"
         d="m 179.46429,257.14286 3.39285,6.60714 c 0,0 6.78572,-1.25 9.64287,0.17857 2.85714,1.42857 -10.17858,3.92857 -10.17858,3.92857 0.71428,-6.25 -3.75,0.35715 -19.10715,0.89286 l 2.50001,5.53571 17.5,-3.39285 0.71428,4.10714 c 0,0 11.78571,-0.53571 15.53572,2.67857 3.7987,3.25602 8.57142,-1.78571 8.57142,-1.78571 -2.5,-7.14286 -19.28571,-6.42857 -19.28571,-6.42857 -1.74053,-4.3685 46.52536,-12.35861 -9.28571,-12.32143 z"
         id="path4675"
         inkscape:connector-curvature="0"
         sodipodi:nodetypes="ccscccccsccc" />
    </g>
    <g
       inkscape:groupmode="layer"
       id="layer7"
       inkscape:label="Lines"
       sodipodi:insensitive="true"
       style="display:inline">
      <path
         style="fill:#74afbd;fill-opacity:1;stroke:none"
         d="M 374.9375,104.65625 373,105.25 c -23.58359,6.96786 -48.17525,10.40731 -71.76015,17.37072 -13.87671,23.23631 -25.1792,44.98705 -39.03712,68.23477 -14.52825,-7.31944 -30.4319,-10.18765 -45.04648,-17.13674 l -69.59375,0 c -6.3473,8.38272 -12.68691,16.77128 -19.03125,25.15625 C 114.59867,181.81279 101.2743,163.8597 86.96875,147.34375 63.998735,141.00465 41.038829,134.6284 18.0625,128.3125 12.785896,141.90401 7.5338153,155.50504 2.25,169.09375 c 11.351509,-4.10359 22.686507,-8.25274 34.03125,-12.375 1.679931,5.20218 7.785849,14.14801 5.516021,18.87421 -13.735185,14.218 -25.965933,25.41012 -39.703521,39.62579 13.823307,-0.99459 27.645784,-2.00069 41.46875,-3 -3.987772,11.71936 -7.990579,23.43363 -11.96875,35.15625 7.233968,0.9537 14.457643,1.98433 21.6875,2.96875 1.212005,7.00977 2.39385,14.02483 3.625,21.03125 17.749527,-0.9153 35.500078,-1.81101 53.25,-2.71875 -8.35071,11.37753 -16.729659,22.7344 -25.0625,34.125 11.022859,2.19854 22.06381,4.30592 33.09375,6.46875 -9.20538,14.74141 -18.433758,29.46859 -27.625,44.21875 -7.224562,12.51331 -18.222662,38.41155 18.1875,36.375 l 186.06599,0 c 14.63673,-0.49042 22.20242,-0.47578 29.75857,-12.08407 -8.29485,-13.11915 -30.24246,-48.95682 -38.54331,-62.07218 6.93658,2.16958 13.88368,4.30571 20.8125,6.5 -1.99374,-10.92632 -3.97855,-21.85428 -5.96875,-32.78125 15.1545,-3.29963 30.3255,-6.52429 45.46875,-9.875 -10.55219,-7.37935 -21.12631,-14.72729 -31.6875,-22.09375 21.98059,-10.87213 43.94961,-21.76767 65.9375,-32.625 -16.04323,-6.47033 -32.06071,-13.00443 -48.09375,-19.5 l 6.28125,-17.71875 c 7.94861,5.73693 14.84022,13.09968 23.71875,17.40625 -6.42985,-13.9118 -16.70847,-25.74138 -24.75,-38.78125 15.09689,-10.84975 30.16905,-21.73427 45.28125,-32.5625 -2.7032,-9.66518 -5.36992,-19.34064 -8.09375,-29 z m -3.39531,7.55076 -4.96558,22.65705 -34.60707,29.84454 18.51174,27.42385 -15.16291,-10.88166 -9.86406,24.17656 44.7086,19.06757 -60.45431,32.66133 26.17306,19.89102 -39.84454,9.28125 4.7086,27.90197 -22.33868,-4.59962 30.15546,67.08741 -18.88087,4.55947 -27.74781,1.13643 -17.29102,-9.56489 -9.2098,-18.65625 3.92218,28.0633 -78.91032,0.28411 2.28854,-32.26175 -8.95726,24.02269 -15.01818,9.88056 -28.25288,-0.88389 c -18.837655,0 -25.201288,-4.91102 -13.62072,-29.73556 l 26.06837,-47.73906 -29.844544,-5.39609 23.698444,-35.50508 -54.708596,1.8336 -5.582805,-19.20352 -16.173064,-5.87421 11.146098,-37.23398 -39.28125,6.37928 40,-37.36563 -15.050763,-19.68164 -23.861356,4.36644 9.016814,-24.3934 64.125792,15.53204 42.125,52.875 20,-26.4375 68.59375,0 41.25079,29.40974 59.80267,-78.29489 z"
         id="path4546-8"
         inkscape:connector-curvature="0"
         sodipodi:nodetypes="ccccccccccccccccccccccccccccccccccccccccccccccccccccccccccccccccccccccccccccccc" />
      <path
         style="fill:#74afbd;fill-opacity:1;stroke:none"
         d="m 95.964492,383.83756 10.606598,-16.16244 -1.51522,16.66752 8.58629,0 5.05076,-12.62691 1.01016,13.13198 7.57614,0.50508 5.05076,-12.62691 5.05077,13.13198 z"
         id="path4577"
         inkscape:connector-curvature="0" />
      <path
         style="fill:#74afbd;fill-opacity:1;stroke:none"
         d="m 262.63966,384.84771 -4.04061,-12.62691 19.1929,14.64722 -1.51523,-17.67768 13.63706,13.63707 5.05076,-12.12184 6.566,12.62691 z"
         id="path4579"
         inkscape:connector-curvature="0"
         sodipodi:nodetypes="cccccccc" />
      <path
         style="fill:#000202;fill-opacity:1;stroke:none;display:inline"
         d="m 156.8289,264.09333 c 0,0 5.09273,-3.60584 7.19364,-4.13793 2.1009,-0.53209 1.20998,2.00958 4.24268,1.44744 6.0654,-1.12427 12.82528,-1.62803 15.6032,0.13973 5.55584,3.53553 -4.57632,8.70359 -4.57632,8.70359 l -11.8566,4.12727 c 0,0 20.20305,-5.55584 17.67767,1.51523 -2.52538,7.07107 -19.69798,10.10152 -19.69798,10.10152 l 0.83159,2.34155 c 0,0 26.48132,-2.24109 23.41208,5.23459 -1.75895,4.28423 -17.41799,8.83419 -23.23351,8.08123 -13.92857,-0.53571 -31.04425,-7.57614 -31.04425,-7.57614 -5.39009,-1.71147 -3.29338,-14.8196 -0.0306,-22.34066 l 8.81563,-13.90228 -5.01486,17.55511 c -0.51798,4.53361 -2.92588,8.72359 1.42331,14.14214 13.02961,10.40579 17.27762,9.08016 24.84065,9.59645 10.18365,0 15.15229,-1.01015 18.18275,-5.05076 3.03046,-4.04061 -20.47353,-4.28572 -20.47353,-4.28572 l -2.22427,-3.19851 c 0,0 19.66734,-5.14268 19.66734,-8.67822 0,-3.53553 -20.20305,0.50508 -20.20305,0.50508 l 2.02031,-8.08122 c 0,0 18.89703,-0.91824 17.3818,-5.96901 -1.51523,-5.05076 -25.9681,3.44363 -25.9681,3.44363 z"
         id="path4583"
         inkscape:connector-curvature="0"
         sodipodi:nodetypes="csssccsccscccccccsccsccscc" />
      <path
         style="fill:#000202;fill-opacity:1;stroke:none;display:inline"
         d="m 230.93244,243.04819 12.2645,21.72879 c 3.1718,9.83153 2.57698,23.16069 -4.9641,28.78935 -5.79645,5.05567 -21.46189,8.11722 -32.88599,10.1628 0,0 -26.20794,5.28535 -24.18763,-1.78572 2.0203,-7.07107 17.34591,-5.60659 22.34591,-10.24945 -10.71428,-3.57143 -30.26669,0.46932 -28.13635,-7.04569 3.29427,-11.62092 22.27412,-3.40772 23.34555,-6.26486 -0.71429,-8.21429 -23.33618,-2.09867 -18.89703,-9.18329 2.28553,-3.64757 20.91208,-5.90774 20.91208,-5.90774 -3.75,-5.89286 -20.76251,2.83108 -23.78934,-3.97933 -4.18271,-9.41112 19.60333,-7.99329 25.77375,-4.90808 l 3.18365,2.19888 c 0,0 -24.09891,-6.30477 -25.54442,-0.68365 -2.06777,8.04089 18.43219,-1.10732 30.57505,7.46411 0,0 -24.21828,0.46917 -24.72335,5.51993 -0.50508,5.05076 15.53482,-1.70957 20.17767,9.18329 -4.54185,5.25526 -23.16338,-0.33227 -24.24893,5.37202 -0.92444,4.85772 19.07037,3.3876 27.99893,7.1376 -7.08459,3.98987 -23.12412,7.54414 -21.24909,10.07088 2.01906,2.72085 38.88561,-2.95867 43.70704,-10.63724 5.51022,-5.97451 11.71395,-11.63379 7.07107,-22.22335 z"
         id="path4585"
         inkscape:connector-curvature="0"
         sodipodi:nodetypes="ccccscscscsccscscscsccc" />
    </g>
  </g>
  <g
     inkscape:label="Head Main"
     inkscape:groupmode="layer"
     id="layer1"
     transform="translate(0,-652.36218)"
     style="display:inline">
    <path
       style="fill:#0086af;fill-opacity:1;fill-rule:nonzero;stroke:none"
       d="m 189.50726,665.23523 c -48.99651,0 -88.73007,40.51012 -88.73007,90.48656 0,20.53003 12.03182,50.99248 23.32696,66.17631 0,0 1.01614,9.02588 -0.24562,17.20196 -1.26176,8.17608 -11.29046,27.0105 -9.3351,31.06104 1.95536,4.05055 13.59289,-10.27585 17.32163,-20.41233 3.72874,-10.13648 4.8029,-21.35231 4.8029,-21.35231 0.84327,0.63915 1.68648,1.25733 2.55239,1.86627 0,0 1.71382,20.63778 4.17166,29.2565 2.45785,8.61873 8.64094,13.56686 9.74302,22.17566 1.10208,8.6088 -13.87093,24.45673 -4.41867,27.50001 9.45227,3.04327 12.47528,-19.54716 14.18913,-28.37826 1.71385,-8.83109 -0.40601,-8.70173 -1.78393,-22.17565 -1.37792,-13.47392 5.05059,-13.57196 5.05059,-13.57196 0.79595,5.84127 8.70233,3.14887 10.44183,2.17708 0,0 -5.30291,14.84899 -3.95516,23.35649 1.34774,8.5075 1.66982,26.09953 10.63839,25.28141 8.96858,-0.81811 -0.22351,-20.92853 1.78394,-28.37825 2.00744,-7.44972 4.88147,-17.74738 9.76085,-16.86022 8.42802,-0.88716 12.67022,16.26028 15.07698,26.16997 2.40676,9.90968 -15.97634,29.5793 -0.87824,31.50114 15.0981,1.92185 11.74536,-20.57757 11.52695,-31.06787 -0.21841,-10.49031 -12.41411,-19.07199 -11.52695,-25.28211 0.44358,-7.98444 5.55659,-10.11249 5.55659,-10.11249 6.55941,-1.63059 8.82796,-2.22597 14.72535,-5.25162 0,0 9.53962,15.04103 16.96109,18.47056 7.42146,3.42953 18.30312,-1.87246 23.95958,0.90569 5.65647,2.77815 8.89367,5.59028 8.86478,10.62126 -0.0289,5.03099 -4.86941,12.10872 -10.62126,12.43264 -5.75186,0.32392 -8.35322,-14.58593 -13.31089,-12.43264 -4.95766,2.15329 -1.84584,10.0416 0,14.21657 1.84584,4.17498 4.98635,7.59911 9.74302,8.86478 4.75668,1.26566 10.69435,-0.75326 15.97306,-3.54042 5.27871,-2.78717 12.41751,-8.27837 14.18913,-13.31089 1.77162,-5.03251 0.37657,-7.39977 -1.75649,-12.43264 -2.13306,-5.03286 -6.30728,-11.90621 -12.43264,-15.97306 -6.12535,-4.06684 -18.08595,-0.27968 -23.0539,-6.20259 -4.96794,-5.92291 -1.97605,-22.42267 -1.97605,-22.42267 1.37934,-1.58382 2.71048,-3.23235 3.97954,-4.91267 0,0 8.82055,9.37218 15.72606,9.60579 6.90551,0.23361 18.05573,-5.14042 20.41917,-10.64871 2.36344,-5.50828 -0.0511,-11.94296 -3.56787,-12.43264 -3.51677,-0.48967 -0.31796,4.59289 -4.41866,7.10829 -4.10071,2.5154 -16.58032,3.0584 -20.41917,1.75649 -3.83886,-1.30191 -2.82685,-2.57984 -2.82685,-2.57984 8.54123,-13.90722 13.47555,-30.3531 13.47555,-47.97407 0,-49.97644 -39.70612,-90.48656 -88.70262,-90.48656 z"
       id="path3939"
       inkscape:connector-curvature="0"
       sodipodi:nodetypes="ssczzzcczzzzzcczzzczzzccczzzzzzzzzzzzcczzzzzcss" />
  </g>
  <g
     inkscape:groupmode="layer"
     id="layer4"
     inkscape:label="Head Shade">
    <path
       style="fill:#000405;fill-opacity:0.34703196;stroke:none"
       d="m 175.26646,151.83395 c 6.58683,3.13658 10.6644,8.78243 8.15513,11.60536 -2.50927,0.31366 -6.58683,-0.94097 -7.84146,-4.07755 -1.25463,-3.13659 -6.9005,-10.6644 -0.31367,-7.52781 z"
       id="path4472"
       inkscape:connector-curvature="0"
       sodipodi:nodetypes="zcsz" />
    <path
       style="fill:#000405;fill-opacity:0.34703196;stroke:none"
       d="m 205.33791,150.99035 c 1.88196,2.19561 -4.07756,14.11463 -7.84146,13.17365 -2.50927,0.31366 -3.13659,-4.07755 0,-7.21414 2.38875,-2.38875 5.9595,-8.15512 7.84146,-5.95951 z"
       id="path4472-6"
       inkscape:connector-curvature="0"
       sodipodi:nodetypes="zcsz" />
    <path
       style="fill:#000405;fill-opacity:0.34703196;stroke:none"
       d="m 166.37676,119.79 c 11.96887,-0.6304 19.63505,-17.24338 2.46134,-27.158622 -16.92638,-9.772453 -22.51666,-10.292706 -37.86542,-4.879379 -15.34877,5.413325 -13.98235,23.547211 2.17459,25.603481 16.15694,2.05627 21.2606,7.06492 33.22949,6.43452 z"
       id="path4452-70"
       inkscape:connector-curvature="0"
       sodipodi:nodetypes="zszzz" />
    <path
       style="fill:#000405;fill-opacity:0.34703196;stroke:none"
       d="m 213.8946,84.281704 c -7.98444,2.661481 -18.63037,14.638146 -14.19456,25.284066 4.4358,10.64592 10.64592,6.6537 22.62259,3.54863 11.97665,-3.10506 8.42801,-0.88715 18.63036,-0.44357 10.20234,0.44358 20.26305,-13.245735 5.76654,-24.396904 -5.76654,-4.435802 -16.41247,-12.420244 -32.82493,-3.992222 z"
       id="path4542"
       inkscape:connector-curvature="0"
       sodipodi:nodetypes="cssssc" />
  </g>
  <g
     inkscape:groupmode="layer"
     id="layer3"
     inkscape:label="Head Lines"
     style="display:inline">
    <path
       style="fill:#004b62;fill-opacity:1;fill-rule:nonzero;stroke:none;display:inline"
       d="m 189.75426,11.089117 c -0.86349,0.0018 -1.71522,0.02623 -2.57984,0.05489 -37.12418,0.468052 -71.46396,26.613118 -83.04893,61.586849 -6.804634,19.089893 -6.631503,40.344474 0.0823,59.418684 4.31339,13.42301 10.01396,26.4552 18.16867,38.01149 1.40481,10.66612 -0.5203,21.11621 -5.15968,30.73853 -1.52593,5.74562 -6.09593,11.93586 -4.08932,18.03145 3.43563,3.68154 7.78275,-1.65055 10.07235,-4.08933 8.36755,-9.33276 12.86082,-21.4223 14.51847,-33.73005 1.58146,13.4757 1.92136,27.95526 10.26448,39.30141 3.574,5.29782 4.32344,12.46267 0.78415,18.0981 -1.96411,5.62149 -7.42825,12.03378 -3.66589,18.07457 3.92212,4.47178 13.0804,1.66257 15.06221,-3.29341 4.53744,-9.47037 4.01516,-20.27766 5.10995,-30.6562 -0.31023,-8.87033 -5.14102,-18.437 -0.96058,-26.89622 1.21771,-1.67088 2.22799,2.4871 4.28144,2.11327 1.77924,1.14116 6.44256,-1.52937 4.69312,1.7016 -2.76126,8.60688 -3.31142,17.79016 -1.3997,26.56688 1.12345,6.63351 1.48813,15.99504 8.7001,18.88224 4.96303,1.85504 9.2855,-3.13619 8.4531,-7.93164 -0.14521,-9.19497 -4.94401,-18.58885 -0.63124,-27.33534 1.53412,-3.16195 2.07803,-8.75492 6.03792,-9.74302 6.47201,-0.0955 8.56327,8.25445 10.53893,13.28344 2.24456,6.84187 5.18376,14.53545 1.26248,21.43464 -3.16236,6.49455 -9.92745,20.96123 1.81137,22.86179 6.79961,1.8855 13.17084,-3.71571 13.85979,-10.34681 1.36656,-8.71239 1.11256,-17.97466 -0.3019,-26.67666 -1.72834,-7.7491 -9.32147,-12.88274 -10.86826,-20.50151 -0.1243,-4.94929 3.10845,-9.98761 8.53543,-9.93513 3.29687,-0.74312 6.56274,-2.40525 9.52346,-3.45808 5.62226,7.32347 11.10499,17.09521 20.96807,18.85479 8.15953,1.22609 17.46393,-4.15166 24.28893,2.44262 7.14958,4.77179 1.11234,17.18489 -6.44961,16.82386 -4.97713,-3.0054 -5.28468,-12.23978 -11.99351,-12.48753 -6.40755,1.39911 -5.36548,9.60716 -3.21108,14.10679 2.17993,8.39941 9.74648,13.56014 19.6507,12.62475 11.06393,-0.60485 17.64701,-2.36006 22.67928,-16.56793 3.4104,-8.06526 -0.6767,-17.18606 -4.75761,-23.80384 -4.25978,-6.47288 -11.24799,-11.23375 -19.32137,-10.6487 -5.31018,0.21002 -12.83939,-1.18514 -13.36577,-7.65719 -0.74358,-5.37297 -1.22881,-11.94878 0.90569,-16.98853 1.60538,-4.14103 3.69746,-0.043 5.81836,1.28992 5.40154,4.91714 13.42836,6.8464 20.22706,3.59531 7.36108,-2.42784 15.87244,-8.40644 14.27146,-17.29043 -0.0894,-4.13244 -4.61784,-9.89091 -8.86477,-6.75149 -1.63407,2.33084 -0.23016,6.60662 -4.17166,7.16317 -6.04301,1.37855 -12.93011,2.63032 -18.8548,0.21956 C 286.78447,119.10511 283.76883,74.056284 259.3002,44.681943 242.62409,23.789739 216.52267,11.031788 189.75426,11.089117 z m 6.65348,5.234176 c 51.81944,5.959513 72.70605,36.118903 79.60654,86.095337 2.41014,17.45537 -3.62588,33.89888 -12.16711,47.8061 0,0 -1.67738,2.38688 2.16148,3.68879 3.83885,1.30191 11.43908,3.4204 21.74991,0.0178 4.5684,-1.50758 1.34547,-7.81976 4.86224,-7.33008 3.51676,0.48967 6.23092,6.17555 2.01534,10.43652 -3.69419,3.73397 -12.18292,7.1119 -19.08843,6.87828 -6.90551,-0.23361 -16.39142,-6.50073 -16.39142,-6.50073 -1.26906,1.68032 -2.37843,3.10706 -3.75776,4.69088 0,0 -3.65726,17.8305 1.31068,23.75341 4.96795,5.92291 18.0375,3.0229 25.05001,8.1987 5.91567,4.36625 7.84459,8.35043 8.66221,13.75516 0.35874,2.37139 1.97558,6.51297 0.20396,11.54549 -1.77162,5.03251 -4.69641,8.5276 -9.97512,11.31477 -5.27871,2.78717 -11.12517,4.33465 -15.75127,2.65325 -1.65161,-0.60028 -6.12285,-2.91547 -7.96869,-7.09044 -1.84584,-4.17498 -5.22699,-8.15116 -0.44358,-10.66794 4.51408,-2.37507 3.35217,11.75647 11.53655,11.1019 10.18401,-0.8145 11.70132,-9.84134 11.50843,-14.65054 -0.20163,-5.02702 -3.65189,-8.73027 -9.30836,-11.50842 -5.65646,-2.77815 -15.42917,0.97131 -24.84674,-2.01464 -7.79323,-2.47093 -15.63035,-15.80909 -15.63035,-15.80909 -5.89739,3.02566 -9.28756,4.94217 -15.84697,6.57276 0,0 -2.66064,-0.29688 -5.54392,8.13114 -2.2179,5.54475 11.30854,18.55709 11.52695,29.04739 0.21841,10.49031 2.24326,25.86949 -9.53084,24.41417 -13.54878,-1.67467 3.285,-16.27435 0.87824,-26.18403 -2.40675,-9.90968 -6.63935,-27.70774 -16.84169,-27.70773 -6.00474,0 -9.09376,10.28874 -11.10121,17.73846 -2.00744,7.44972 6.74107,24.45508 -0.45319,25.49499 -8.91317,1.28837 -7.52664,-12.77724 -8.87438,-21.28474 -1.34775,-8.5075 2.62136,-24.02117 2.62136,-24.02117 -1.73951,0.9718 -10.26053,1.45005 -11.05647,-4.39122 0,0 -9.0175,6.50285 -7.24551,16.0946 1.77274,9.5958 5.15794,14.58997 3.44409,23.42106 -1.71385,8.8311 -2.31946,25.1576 -11.77172,22.11432 -9.45227,-3.04327 6.46172,-13.87267 5.35964,-22.48148 -1.10208,-8.6088 -10.69946,-18.94525 -11.93863,-27.8215 -1.20321,-8.61873 -4.01483,-24.63004 -4.01483,-24.63004 -0.86591,-0.60894 -1.86595,-0.52139 -2.70922,-1.16053 0,0 -2.64245,9.64753 -6.37119,19.78401 -3.72874,10.13648 -11.59861,19.45118 -13.55397,15.40063 -1.95537,-4.05054 6.81495,-15.99131 8.07671,-24.16739 1.26175,-8.17608 1.18798,-17.52175 1.18798,-17.52175 C 114.69235,154.34596 103.86614,121.69231 103.60012,101.164 102.9728,52.755855 147.73208,10.725332 196.40774,16.323293 z"
       id="path3939-7"
       inkscape:connector-curvature="0"
       sodipodi:nodetypes="scccccccccccccccccccccccccccccccccccccccccccccccssscsssssccsssssssssssscccssscsssccsssssccssscss" />
  </g>
  <g
     inkscape:groupmode="layer"
     id="layer2"
     inkscape:label="Eyes">
    <path
       style="fill:#0eaf00;fill-opacity:1;stroke:none"
       d="m 163.69855,116.1691 c 14.7259,-0.8142 8.22425,-18.22901 -0.52144,-22.943265 -8.74569,-4.714254 -16.80233,-7.803029 -28.15764,0 -11.3553,7.803025 -10.24844,16.170005 1.04288,17.728885 11.29132,1.55887 12.91029,6.02857 27.6362,5.21438 z"
       id="path4452"
       inkscape:connector-curvature="0"
       sodipodi:nodetypes="zzzzz" />
    <path
       style="fill:#0eaf00;fill-opacity:1;stroke:none"
       d="m 241.1291,108.13506 c 11.19421,2.64829 9.79117,-12.563725 0.59892,-17.518689 -9.19224,-4.954962 -18.4713,-6.794594 -30.40641,1.40685 -11.9351,8.201459 -10.1444,25.150759 2.97809,21.770709 13.12249,-3.38007 15.63517,-8.30716 26.8294,-5.65887 z"
       id="path4452-7"
       inkscape:connector-curvature="0"
       sodipodi:nodetypes="zzzzz" />
  </g>
</svg>
